PathFileType	4	(X/Y/Z)	C:/Users/beibeiliu/ov580/test_trc/capture2\sequence.27_training_dense_right.trc
DataRate	CameraRate	NumFrames	NumMarkers	Units	OrigDataRate	OrigDataStartFrame	OrigNumFrames
120	120	23	19	mm	120	304	347
Frame#	Time	ThumbCMC			ThumbMCP			ThumbIP			ThumbTip			IndexMCP			IndexPIP			IndexTip			MiddleMCP			MiddlePIP			MiddleTip			RingMCP			RingPIP			RingTip			PinkyMCP			PinkyPIP			PinkyTip			BackHand1			BackHand2			BackHand3	
		X0	Y0	Z0	X1	Y1	Z1	X2	Y2	Z2	X3	Y3	Z3	X4	Y4	Z4	X5	Y5	Z5	X6	Y6	Z6	X7	Y7	Z7	X8	Y8	Z8	X9	Y9	Z9	X10	Y10	Z10	X11	Y11	Z11	X12	Y12	Z12	X13	Y13	Z13	X14	Y14	Z14	X15	Y15	Z15	X16	Y16	Z16	X17	Y17	Z17	X18	Y18	Z18	
303	2.525	116.855	52.3997	51.7321	88.3946	55.247	25.5787	71.6674	44.8948	2.01911	65.8029	20.5802	-4.13757	114.978	33.3783	-19.2919	93.2578	44.1807	-42.5841	67.0001	57.1571	-34.9196	103.374	10.1822	-25.3466	85.2041	18.5386	-50.6049	57.8568	29.5158	-58.2283	91.9474	0.677745	-13.9867	71.4234	2.83521	-38.0702	50.4412	17.3907	-54.0447	78.4809	-9.19777	-5.01849	62.4445	-1.37158	-19.6744	44.6525	16.9656	-36.6271	115.452	-3.33189	27.4392	124.566	-5.77581	58.1264	137.048	21.491	37.8883	
304	2.53333	116.485	51.8744	52.1134	90.6681	57.4699	26.6662	76.6122	45.285	4.74828	69.4659	22.6328	-1.77031	115.174	38.0552	-23.4956	95.2961	44.4047	-42.1142	64.3897	58.4254	-33.1028	104.59	14.6032	-25.4561	84.9846	17.34	-47.924	55.9856	32.3409	-62.181	90.9988	3.82927	-18.3149	71.7249	6.2294	-40.7025	52.4672	15.8114	-53.7395	77.9445	-7.92982	-3.88879	64.1389	-1.21415	-18.9937	44.2964	8.37773	-35.921	114.855	-3.12708	28.0787	123.917	-5.86087	56.1737	139.193	22.4362	38.4016	
305	2.54167	117.237	53.4164	53.5012	91.4302	61.2411	29.8929	78.2254	46.2038	3.98625	71.6256	21.5949	-1.27598	115.047	38.6027	-19.8217	96.4496	46.3942	-42.5246	66.5222	60.1153	-37.9814	104.58	16.1124	-22.1782	84.1865	20.4714	-48.9649	58.4214	30.9151	-61.5411	89.2554	3.89661	-18.282	74.6358	6.38203	-36.878	53.1066	16.6475	-55.1036	76.9815	-6.93164	0.453966	60.1831	0.130103	-22.0469	48.8709	10.3143	-37.4826	114.651	-2.94219	31.5978	122.558	-7.62144	56.7869	137.262	24.1547	39.1483	
306	2.55	118.467	55.4711	52.2519	91.8083	62.6646	27.4459	77.4761	51.0629	1.90681	71.0074	26.3193	-2.28185	116.785	41.0654	-23.6756	95.8228	45.1323	-42.4923	66.5601	58.3014	-40.2459	103.237	15.3053	-23.4367	84.3308	20.7473	-49.6355	57.8224	28.6092	-61.2069	89.4332	4.64108	-15.1528	72.8392	7.11725	-36.764	50.0471	12.9826	-55.7798	78.6662	-2.74584	-2.56718	63.0603	0.0201942	-17.6533	45.5471	8.9311	-41.4475	115.688	-0.861377	32.0348	121.82	-6.10542	60.4964	134.053	21.3314	37.0993	
307	2.55833	118.446	54.5539	52.1817	93.9816	60.6425	28.0175	80.4923	52.0658	4.89589	70.9066	23.3968	-6.20537	113.943	36.2824	-22.7221	96.928	48.5849	-46.021	71.5112	60.4399	-45.6305	103.053	16.1629	-25.2125	83.4605	19.4518	-49.0544	59.3979	28.0006	-63.1214	87.1739	2.11669	-15.7791	72.8719	8.27526	-36.8183	51.3827	14.1871	-56.9676	75.0832	-4.97863	-1.21638	60.1579	2.7122	-20.5058	46.8215	11.9535	-40.0901	111.842	-2.45255	29.8528	122.728	-1.8089	55.5657	136.074	22.2328	36.806	
308	2.56667	118.711	52.6271	51.4825	95.7748	63.5442	29.6847	81.0411	54.0807	5.17203	71.9384	27.1402	-4.23816	114.717	35.7185	-20.2561	94.6796	41.9416	-45.0934	72.0899	53.011	-49.3026	99.2012	13.5851	-24.6634	83.5274	15.6889	-44.679	57.5225	25.4866	-62.9963	85.5666	2.49526	-17.1307	69.7332	4.67704	-34.579	53.8223	14.2309	-54.4179	77.7441	-1.42495	1.61831	60.3142	2.44708	-17.9288	43.7173	12.1016	-40.2922	111.957	-2.15382	29.6766	121.981	-4.73912	55.5386	134.626	23.3752	37.1557	
309	2.575	119.142	52.5728	51.579	96.6281	61.5035	23.1103	81.2715	50.9985	-1.06797	73.0322	27.2463	-4.31223	116.16	37.4883	-23.3216	98.633	38.4538	-45.0758	71.6649	50.2942	-53.1399	99.9932	13.6248	-21.2625	79.5027	15.7402	-47.6355	56.4802	23.4812	-63.3446	84.4702	4.78842	-18.414	68.7162	4.95254	-35.418	49.7357	12.1822	-56.5169	73.3311	-2.7008	-0.802564	60.8607	2.6864	-16.6316	45.7767	9.89628	-37.897	114.205	-1.9629	32.2725	120.937	-6.82961	58.4789	134.295	19.9311	35.3751	
310	2.58333	119.68	54.3742	48.9317	97.6886	59.3574	25.8854	83.3822	54.7409	0.354606	74.0392	28.0164	-7.23212	114.393	34.5633	-23.6236	99.3091	35.2764	-44.5694	73.3265	42.5035	-55.7391	98.0216	14.8862	-22.8616	79.9403	15.3148	-44.7299	57.994	25.3749	-65.8062	83.7753	2.61986	-13.91	68.5318	9.71684	-37.4129	51.2367	15.7488	-57.0076	72.3282	-3.12933	-2.35104	59.8706	7.84651	-19.611	44.4481	11.6587	-39.9419	113.398	-2.55167	28.7413	120.73	-4.32582	57.7882	133.197	20.9987	35.3214	
311	2.59167	119.67	51.805	49.7831	98.7549	62.8486	26.9681	86.3945	53.5379	3.12799	74.0731	33.0369	-11.5373	113.361	32.0423	-21.5218	98.9761	33.4179	-43.7984	72.0657	40.781	-62.022	98.1316	17.239	-25.9857	79.9475	17.3152	-46.0474	58.3024	24.8784	-64.7126	84.7144	7.09692	-15.8718	67.0049	9.53961	-38.045	50.4048	16.2573	-58.0994	72.34	-2.88926	0.626142	57.8732	3.62382	-18.1426	47.6698	13.181	-39.3434	110.945	-2.45852	29.9965	119.502	-6.45468	56.455	132.876	19.844	37.1442	
312	2.6	120.124	52.6925	51.0993	100.064	61.5745	25.3766	86.513	54.7467	-2.04134	75.5052	32.5137	-14.3595	113.472	33.3701	-23.8344	96.3192	31.3831	-45.307	76.4133	33.5355	-60.1324	98.1978	17.5196	-25.3297	80.1254	20.2863	-47.4196	57.6723	26.8587	-64.9694	81.7618	5.8745	-19.0019	67.5346	10.8408	-35.9091	50.7431	17.1683	-58.7267	73.7066	-0.178461	-3.50003	59.7359	7.60451	-19.1978	43.2479	10.606	-41.0041	110.8	-7.75315	30.1262	121.299	-4.37441	54.1893	136.193	20.2993	34.3177	
313	2.60833	120.387	49.708	48.3265	101.025	63.228	24.6031	88.9863	56.8735	-1.91896	76.9205	39.2506	-19.6036	111.075	30.2594	-20.2032	96.8136	33.5869	-45.8374	76.3149	32.7737	-61.2214	94.0716	13.6666	-24.7132	76.9312	19.6778	-45.0543	56.3899	27.6936	-64.6687	81.9273	2.70979	-14.8146	66.6352	8.46537	-34.6967	50.5628	15.2498	-54.862	72.2528	-2.2699	-3.23417	59.6595	7.20408	-20.3466	44.3112	7.88234	-37.9885	110.292	-5.18943	27.0053	120.056	-9.99865	59.4474	133.904	17.0635	36.397	
314	2.61667	123.699	53.0295	51.5893	104.125	61.975	27.3365	92.1154	54.0754	-2.60963	80.7498	41.3787	-19.8381	110.531	31.4921	-23.9182	96.9886	33.7133	-43.5344	73.9749	33.41	-59.3797	95.013	16.3475	-24.7451	75.4764	23.1455	-46.7858	54.0004	26.2693	-60.8614	81.2724	4.28603	-16.5491	67.5383	11.3843	-33.7635	49.7946	18.6184	-55.5714	75.2375	-1.79903	-0.37013	60.0307	5.71172	-17.9895	47.4194	11.3377	-37.902	108.991	-8.69064	27.6329	121.552	-6.02376	55.8204	135.367	18.7576	36.5096	
315	2.625	124.218	49.6487	53.654	107.794	62.238	28.1494	97.146	57.8501	0.428909	85.773	49.4034	-21.6592	109.797	31.1535	-20.7984	94.2758	31.9778	-39.3489	70.9474	36.3	-60.5888	96.8029	17.3749	-22.5119	74.689	21.2014	-43.4507	55.9816	30.6963	-59.8117	80.0955	3.54464	-17.6569	66.9172	10.225	-31.6115	48.6649	19.7878	-53.6273	73.0207	-4.04831	-3.4932	59.1781	5.343	-17.3899	40.8227	10.2784	-37.4921	111.895	-8.49307	27.7005	121.487	-8.45953	58.788	136.4	15.9496	35.7567	
316	2.63333	127.354	49.8328	54.0081	111.488	59.0903	27.2634	103.656	62.2792	2.16871	92.1447	53.3568	-21.9494	111.3	33.205	-23.2951	93.79	36.2765	-42.7408	70.9175	36.2293	-56.4495	98.1217	18.4155	-23.592	79.7448	20.9719	-40.001	54.7834	27.6523	-58.089	83.2916	5.04446	-15.7437	65.9689	8.48654	-32.1743	45.6076	15.862	-51.5844	74.2765	-4.40928	-2.45671	61.4578	1.40609	-14.204	41.937	8.12286	-34.8257	114.854	-9.69989	33.3117	125.174	-11.1644	61.89	138.699	17.5584	36.7853	
317	2.64167	127.965	48.359	51.5247	117.072	61.5113	24.6437	108.633	62.2994	-3.45235	99.1637	53.0885	-20.0553	113.38	30.9378	-21.933	97.234	33.6899	-39.3472	75.5103	37.6536	-54.0022	97.2768	15.029	-24.659	77.4597	19.3964	-40.0794	54.6722	28.4934	-57.5528	88.6881	4.7567	-12.6154	66.0522	8.63115	-32.57	48.1657	18.5085	-50.5958	76.0757	-7.40925	-0.155781	61.5816	1.91194	-14.1421	46.3377	11.8996	-31.7263	114.679	-12.743	29.4894	124.728	-13.3024	59.9513	137.658	15.9394	37.7963	
318	2.65	131.367	46.1328	49.743	120.859	59.652	28.3576	113.878	59.9417	-2.12995	106.24	57.25	-21.1827	113.557	27.8875	-20.6279	94.2318	31.8674	-39.9058	71.6347	36.9227	-54.7143	97.7809	12.929	-22.9694	81.7496	20.8433	-39.3995	56.3287	28.7056	-59.1922	86.8383	1.56533	-12.1202	68.6969	10.1519	-33.0512	50.8281	19.3558	-51.2614	75.7431	-8.40435	0.0239273	59.3699	-1.36362	-13.1444	46.1583	10.8305	-31.5022	117.313	-9.75071	31.4515	124.032	-11.3847	59.5202	136.94	11.6597	38.5476	
319	2.65833	132.786	47.1558	53.7987	122.152	57.1446	26.1067	118.225	60.8688	-1.87468	111.537	61.2228	-22.8036	114.944	25.9607	-18.1948	97.7514	30.9947	-37.8519	74.4234	40.0371	-56.3125	102	13.963	-21.5386	80.8337	20.7788	-42.2487	61.7913	28.4664	-57.9502	87.371	3.23635	-16.6715	68.0473	5.78442	-31.145	48.5771	16.8166	-50.4379	76.952	-8.8293	2.63467	61.3372	-0.72907	-12.5171	47.9002	8.18396	-30.633	116.593	-11.4667	31.004	123.772	-14.7703	62.6631	138.458	10.9235	40.3258	
320	2.66667	134.164	45.4076	48.5586	122.961	57.0959	26.9297	117.225	59.2789	-0.362274	111.556	58.5677	-23.329	114.067	25.0994	-19.8123	98.6425	32.9981	-41.129	76.1627	37.9319	-54.8827	100.565	13.163	-24.835	83.7319	18.9349	-41.1	61.0226	28.7624	-59.1146	85.136	-0.884173	-14.804	67.0617	5.2567	-31.129	50.0019	15.8116	-50.2693	79.5078	-7.68553	2.21963	63.579	-0.175965	-12.6597	45.7708	8.43129	-33.048	117.13	-11.0081	32.0666	123.256	-13.0602	62.7235	141.324	11.4029	41.9978	
321	2.675	133.797	46.5448	51.9595	122.312	57.5329	27.2869	116.193	60.6855	-1.93399	106.863	55.2297	-24.8804	115.953	26.5469	-19.7141	95.164	31.8375	-41.1936	76.5742	38.5294	-54.668	97.9627	9.94783	-23.5244	80.7441	16.9617	-39.846	58.7687	26.38	-58.4337	88.8557	2.54289	-13.9008	68.524	6.57982	-31.6359	54.3556	16.5384	-46.9846	76.6319	-6.49228	-0.984225	61.4247	-0.464731	-13.9288	46.301	9.86286	-33.2024	118.246	-13.163	32.1694	125.752	-14.0689	59.9131	138.486	8.46184	39.4936	
322	2.68333	133.005	46.5765	49.0017	118.268	54.6963	26.2233	110.977	58.4364	-2.0026	101.646	51.4915	-19.9647	115.219	25.4026	-17.912	97.0437	32.2746	-41.6984	74.9522	34.956	-53.1949	100.321	13.1492	-24.2104	82.0484	18.957	-42.1522	58.845	28.9893	-61.2962	85.5986	1.54402	-15.368	67.2455	8.38973	-32.4444	51.5027	17.2951	-49.9493	74.319	-9.48796	-0.29258	63.4554	0.829644	-12.33	42.8526	8.8716	-32.684	114.577	-15.8652	31.404	124.239	-15.6764	58.5523	138.73	8.4065	42.4205	
323	2.69167	130.958	45.6664	50.9814	115.956	54.6283	24.6969	107.333	56.8876	2.44929	96.3715	50.0892	-21.8101	114.772	25.5199	-20.9539	95.5716	29.6345	-40.8844	73.4238	36.1438	-56.2328	100.23	10.2253	-21.3063	80.5782	20.1243	-43.0827	61.0512	27.5262	-58.6077	87.0207	0.261134	-12.8626	69.9077	10.5776	-32.3258	51.1445	15.0595	-47.5935	74.985	-8.66262	-0.220285	63.5823	2.78062	-15.0361	45.732	8.72195	-33.9398	117.766	-12.1042	30.7179	126.008	-13.7467	57.6698	142.006	9.85098	41.9601	
324	2.7	129.608	45.6715	48.3654	114.65	56.8026	22.7706	103.224	55.0491	0.408972	92.4225	47.9764	-21.3888	115.471	27.4771	-21.2211	96.4723	31.8359	-42.9871	72.7212	34.8461	-57.9254	99.1846	12.7997	-22.7406	79.495	20.1987	-43.1492	61.5964	26.9081	-57.5939	85.9619	1.63766	-14.3466	67.9749	6.31928	-30.0082	52.8004	16.4558	-48.679	76.9207	-4.86392	-1.32194	61.2529	2.74831	-14.6384	47.7529	9.15326	-30.327	112.823	-13.4949	33.4843	123.602	-13.9447	58.3078	138.586	11.4775	37.3829	
325	2.70833	129.113	46.4192	52.3526	111.263	57.0709	24.5902	99.106	55.1505	0.227668	87.0057	43.7843	-20.4599	114.04	28.8548	-22.6452	96.3385	29.24	-39.0051	74.722	33.467	-55.2759	98.253	14.438	-23.5666	79.3209	20.3499	-42.1299	59.2111	26.1444	-57.3741	86.8426	4.26926	-13.7058	70.6492	9.26726	-29.1872	49.4405	15.6795	-49.4211	73.8436	-6.16578	-0.577463	61.5369	3.72835	-15.533	46.1307	14.1086	-33.6618	113.833	-11.776	30.8957	121.999	-13.8032	57.6629	139.566	12.225	37.3321	
